<mxfile host="65bd71144e">
    <diagram id="afJgA6YJ7kgfRQqBY9Ge" name="Page-1">
        <mxGraphModel dx="1869" dy="2504" grid="1" gridSize="10" guides="1" tooltips="1" connect="1" arrows="1" fold="1" page="1" pageScale="1" pageWidth="1654" pageHeight="2336" background="none" math="0" shadow="0">
            <root>
                <mxCell id="0"/>
                <mxCell id="1" parent="0"/>
                <mxCell id="198" style="edgeStyle=none;html=1;entryX=0.5;entryY=0;entryDx=0;entryDy=0;labelBackgroundColor=none;fillColor=#333333;" edge="1" parent="1" source="192" target="194">
                    <mxGeometry relative="1" as="geometry"/>
                </mxCell>
                <mxCell id="192" value="&lt;div style=&quot;color: rgb(204, 204, 204); font-family: Menlo, Monaco, &amp;quot;Courier New&amp;quot;, monospace; line-height: 18px;&quot;&gt;&lt;span style=&quot;color: rgb(220, 220, 170);&quot;&gt;process_text_file&lt;/span&gt;&lt;span style=&quot;color: #dcdcaa;&quot;&gt;()&lt;/span&gt;&lt;/div&gt;" style="strokeWidth=2;html=1;shape=mxgraph.flowchart.start_1;whiteSpace=wrap;labelBackgroundColor=none;flipH=1;flipV=1;shadow=0;labelBorderColor=none;fillColor=#333333;" vertex="1" parent="1">
                    <mxGeometry x="-1570" y="-2290" width="160" height="60" as="geometry"/>
                </mxCell>
                <mxCell id="251" style="edgeStyle=none;html=1;labelBackgroundColor=none;fillColor=#333333;" edge="1" parent="1" source="193" target="248">
                    <mxGeometry relative="1" as="geometry"/>
                </mxCell>
                <mxCell id="193" value="&lt;div style=&quot;color: rgb(204, 204, 204); font-family: Menlo, Monaco, &amp;quot;Courier New&amp;quot;, monospace; line-height: 18px;&quot;&gt;&lt;span style=&quot;color: rgb(220, 220, 170);&quot;&gt;generate_gcode&lt;/span&gt;&lt;span style=&quot;color: #dcdcaa;&quot;&gt;()&lt;/span&gt;&lt;/div&gt;" style="strokeWidth=2;html=1;shape=mxgraph.flowchart.start_1;whiteSpace=wrap;labelBackgroundColor=none;flipH=1;flipV=1;shadow=0;labelBorderColor=none;fillColor=#333333;" vertex="1" parent="1">
                    <mxGeometry x="-776.88" y="-2310" width="160" height="60" as="geometry"/>
                </mxCell>
                <mxCell id="199" value="yes" style="edgeStyle=none;html=1;entryX=0;entryY=0.5;entryDx=0;entryDy=0;labelBackgroundColor=none;fillColor=#333333;" edge="1" parent="1" source="194" target="196">
                    <mxGeometry x="-0.1875" y="10" relative="1" as="geometry">
                        <mxPoint as="offset"/>
                    </mxGeometry>
                </mxCell>
                <mxCell id="205" value="no" style="edgeStyle=none;html=1;labelBackgroundColor=none;fillColor=#333333;" edge="1" parent="1" source="194" target="201">
                    <mxGeometry x="0.1111" y="10" relative="1" as="geometry">
                        <mxPoint as="offset"/>
                    </mxGeometry>
                </mxCell>
                <mxCell id="194" value="&lt;div style=&quot;font-family: Menlo, Monaco, &amp;quot;Courier New&amp;quot;, monospace; font-weight: normal; font-size: 12px; line-height: 18px;&quot;&gt;&lt;span style=&quot;color: #cccccc;&quot;&gt;&lt;/span&gt;&lt;div style=&quot;line-height: 18px;&quot;&gt; &lt;span style=&quot;color: rgb(197, 134, 192);&quot;&gt;if(&lt;/span&gt;&lt;/div&gt;&lt;div style=&quot;line-height: 18px;&quot;&gt;&lt;span style=&quot;&quot;&gt;&lt;font color=&quot;#dcdcaa&quot;&gt;!&lt;/font&gt;&lt;/span&gt;&lt;span style=&quot;color: rgb(204, 204, 204);&quot;&gt;fontData&lt;/span&gt;&lt;/div&gt;&lt;div style=&quot;line-height: 18px;&quot;&gt;&lt;span style=&quot;color: rgb(197, 134, 192);&quot;&gt;)&lt;/span&gt;&lt;/div&gt;&lt;/div&gt;" style="rhombus;whiteSpace=wrap;html=1;labelBackgroundColor=none;flipH=1;flipV=1;shadow=0;labelBorderColor=none;fillColor=#333333;" vertex="1" parent="1">
                    <mxGeometry x="-1573.75" y="-2180" width="167.5" height="140" as="geometry"/>
                </mxCell>
                <mxCell id="195" style="edgeStyle=none;html=1;labelBackgroundColor=none;shadow=0;labelBorderColor=none;fillColor=#333333;" edge="1" parent="1" source="196">
                    <mxGeometry relative="1" as="geometry">
                        <mxPoint x="-1291.25" y="-2034" as="targetPoint"/>
                    </mxGeometry>
                </mxCell>
                <mxCell id="196" value="&lt;div style=&quot;color: rgb(204, 204, 204); font-family: Menlo, Monaco, &amp;quot;Courier New&amp;quot;, monospace; line-height: 18px;&quot;&gt;&lt;span style=&quot;color: #dcdcaa;&quot;&gt;ErrorHandler&lt;/span&gt;()&lt;/div&gt;" style="shape=process;whiteSpace=wrap;html=1;backgroundOutline=1;labelBackgroundColor=none;flipH=1;flipV=1;shadow=0;labelBorderColor=none;fillColor=#333333;" vertex="1" parent="1">
                    <mxGeometry x="-1366.25" y="-2139" width="150" height="58" as="geometry"/>
                </mxCell>
                <mxCell id="197" value="&lt;div style=&quot;color: rgb(204, 204, 204); font-family: Menlo, Monaco, &amp;quot;Courier New&amp;quot;, monospace; line-height: 18px;&quot;&gt;&lt;div style=&quot;line-height: 18px;&quot;&gt;&lt;div style=&quot;line-height: 18px;&quot;&gt;&lt;div style=&quot;line-height: 18px;&quot;&gt;&lt;span style=&quot;color: #4fc1ff;&quot;&gt;ERROR_NO_FONT_DATA&lt;/span&gt;&lt;/div&gt;&lt;/div&gt;&lt;/div&gt;&lt;/div&gt;" style="strokeWidth=2;html=1;shape=mxgraph.flowchart.terminator;whiteSpace=wrap;labelBackgroundColor=none;flipH=1;flipV=1;shadow=0;labelBorderColor=none;fillColor=#333333;" vertex="1" parent="1">
                    <mxGeometry x="-1406.25" y="-2044" width="230" height="60" as="geometry"/>
                </mxCell>
                <mxCell id="200" value="yes" style="edgeStyle=none;html=1;entryX=0;entryY=0.5;entryDx=0;entryDy=0;labelBackgroundColor=none;fillColor=#333333;" edge="1" parent="1" source="201" target="203">
                    <mxGeometry x="-0.1875" y="14" relative="1" as="geometry">
                        <mxPoint as="offset"/>
                    </mxGeometry>
                </mxCell>
                <mxCell id="229" value="no" style="edgeStyle=none;html=1;entryX=0.5;entryY=0;entryDx=0;entryDy=0;labelBackgroundColor=none;fillColor=#333333;" edge="1" parent="1" source="201" target="206">
                    <mxGeometry x="0.1613" y="10" relative="1" as="geometry">
                        <mxPoint as="offset"/>
                    </mxGeometry>
                </mxCell>
                <mxCell id="201" value="&lt;div style=&quot;font-family: Menlo, Monaco, &amp;quot;Courier New&amp;quot;, monospace; font-weight: normal; font-size: 12px; line-height: 18px;&quot;&gt;&lt;span style=&quot;color: #cccccc;&quot;&gt;&lt;/span&gt;&lt;div style=&quot;line-height: 18px;&quot;&gt; &lt;span style=&quot;color: rgb(197, 134, 192);&quot;&gt;if(&lt;/span&gt;&lt;/div&gt;&lt;div style=&quot;line-height: 18px;&quot;&gt;&lt;span style=&quot;&quot;&gt;&lt;font color=&quot;#dcdcaa&quot;&gt;!&lt;/font&gt;&lt;/span&gt;&lt;span style=&quot;color: rgb(156, 220, 254);&quot;&gt;file&lt;/span&gt;&lt;/div&gt;&lt;div style=&quot;line-height: 18px;&quot;&gt;&lt;span style=&quot;color: rgb(197, 134, 192);&quot;&gt;)&lt;/span&gt;&lt;/div&gt;&lt;/div&gt;" style="rhombus;whiteSpace=wrap;html=1;labelBackgroundColor=none;flipH=1;flipV=1;shadow=0;labelBorderColor=none;fillColor=#333333;" vertex="1" parent="1">
                    <mxGeometry x="-1573.75" y="-1986" width="167.5" height="140" as="geometry"/>
                </mxCell>
                <mxCell id="202" style="edgeStyle=none;html=1;labelBackgroundColor=none;shadow=0;labelBorderColor=none;fillColor=#333333;" edge="1" parent="1" source="203">
                    <mxGeometry relative="1" as="geometry">
                        <mxPoint x="-1291.25" y="-1840" as="targetPoint"/>
                    </mxGeometry>
                </mxCell>
                <mxCell id="203" value="&lt;div style=&quot;color: rgb(204, 204, 204); font-family: Menlo, Monaco, &amp;quot;Courier New&amp;quot;, monospace; line-height: 18px;&quot;&gt;&lt;span style=&quot;color: #dcdcaa;&quot;&gt;ErrorHandler&lt;/span&gt;()&lt;/div&gt;" style="shape=process;whiteSpace=wrap;html=1;backgroundOutline=1;labelBackgroundColor=none;flipH=1;flipV=1;shadow=0;labelBorderColor=none;fillColor=#333333;" vertex="1" parent="1">
                    <mxGeometry x="-1366.25" y="-1945" width="150" height="58" as="geometry"/>
                </mxCell>
                <mxCell id="204" value="&lt;div style=&quot;color: rgb(204, 204, 204); font-family: Menlo, Monaco, &amp;quot;Courier New&amp;quot;, monospace; line-height: 18px;&quot;&gt;&lt;div style=&quot;line-height: 18px;&quot;&gt;&lt;div style=&quot;line-height: 18px;&quot;&gt;&lt;div style=&quot;line-height: 18px;&quot;&gt;&lt;div style=&quot;line-height: 18px;&quot;&gt;&lt;span style=&quot;color: #4fc1ff;&quot;&gt;ERROR_NO_TEXT_FILE&lt;/span&gt;&lt;/div&gt;&lt;/div&gt;&lt;/div&gt;&lt;/div&gt;&lt;/div&gt;" style="strokeWidth=2;html=1;shape=mxgraph.flowchart.terminator;whiteSpace=wrap;labelBackgroundColor=none;flipH=1;flipV=1;shadow=0;labelBorderColor=none;fillColor=#333333;" vertex="1" parent="1">
                    <mxGeometry x="-1406.25" y="-1850" width="230" height="60" as="geometry"/>
                </mxCell>
                <mxCell id="228" style="edgeStyle=none;html=1;labelBackgroundColor=none;fillColor=#333333;" edge="1" parent="1" source="206" target="207">
                    <mxGeometry relative="1" as="geometry"/>
                </mxCell>
                <mxCell id="206" value="&lt;div style=&quot;color: rgb(204, 204, 204); font-family: Menlo, Monaco, &amp;quot;Courier New&amp;quot;, monospace; font-weight: normal; font-size: 12px; line-height: 18px;&quot;&gt;&lt;div style=&quot;line-height: 18px;&quot;&gt;&lt;span style=&quot;color: #dcdcaa;&quot;&gt;fgetc&lt;/span&gt;(&lt;span style=&quot;color: #9cdcfe;&quot;&gt;file&lt;/span&gt;)&lt;/div&gt;&lt;/div&gt;" style="rounded=1;whiteSpace=wrap;html=1;labelBackgroundColor=none;flipH=1;flipV=1;shadow=0;labelBorderColor=none;fillColor=#333333;" vertex="1" parent="1">
                    <mxGeometry x="-1561.25" y="-1784" width="142.5" height="60" as="geometry"/>
                </mxCell>
                <mxCell id="227" value="yes" style="edgeStyle=none;html=1;entryX=0.5;entryY=0;entryDx=0;entryDy=0;labelBackgroundColor=none;fillColor=#333333;" edge="1" parent="1" source="207" target="208">
                    <mxGeometry y="20" relative="1" as="geometry">
                        <mxPoint as="offset"/>
                    </mxGeometry>
                </mxCell>
                <mxCell id="243" value="no" style="edgeStyle=none;html=1;labelBackgroundColor=none;fillColor=#333333;" edge="1" parent="1" source="207" target="231">
                    <mxGeometry x="-0.8166" y="10" relative="1" as="geometry">
                        <mxPoint as="offset"/>
                    </mxGeometry>
                </mxCell>
                <mxCell id="207" value="&lt;div style=&quot;font-family: Menlo, Monaco, &amp;quot;Courier New&amp;quot;, monospace; font-weight: normal; font-size: 12px; line-height: 18px;&quot;&gt;&lt;span style=&quot;color: #cccccc;&quot;&gt;&lt;/span&gt;&lt;div style=&quot;line-height: 18px;&quot;&gt; &lt;span style=&quot;color: rgb(197, 134, 192);&quot;&gt;if(&lt;/span&gt;&lt;/div&gt;&lt;div style=&quot;line-height: 18px;&quot;&gt;&lt;span style=&quot;color: rgb(220, 220, 170);&quot;&gt;fgetc&lt;/span&gt;&lt;span style=&quot;color: rgb(204, 204, 204);&quot;&gt;(&lt;/span&gt;&lt;span style=&quot;color: rgb(156, 220, 254);&quot;&gt;file&lt;/span&gt;&lt;span style=&quot;color: rgb(204, 204, 204);&quot;&gt;) != EOF&lt;/span&gt;&lt;br&gt;&lt;/div&gt;&lt;div style=&quot;line-height: 18px;&quot;&gt;&lt;span style=&quot;color: rgb(197, 134, 192);&quot;&gt;)&lt;/span&gt;&lt;/div&gt;&lt;/div&gt;" style="rhombus;whiteSpace=wrap;html=1;labelBackgroundColor=none;flipH=1;flipV=1;shadow=0;labelBorderColor=none;fillColor=#333333;" vertex="1" parent="1">
                    <mxGeometry x="-1573.75" y="-1690" width="167.5" height="140" as="geometry"/>
                </mxCell>
                <mxCell id="225" style="edgeStyle=none;html=1;entryX=0.5;entryY=0;entryDx=0;entryDy=0;labelBackgroundColor=none;fillColor=#333333;" edge="1" parent="1" source="208" target="210">
                    <mxGeometry relative="1" as="geometry"/>
                </mxCell>
                <mxCell id="208" value="&lt;div style=&quot;font-family: Menlo, Monaco, &amp;quot;Courier New&amp;quot;, monospace; font-weight: normal; font-size: 12px; line-height: 18px;&quot;&gt;&lt;div style=&quot;line-height: 18px;&quot;&gt;&lt;div style=&quot;color: rgb(204, 204, 204); line-height: 18px;&quot;&gt;&lt;span style=&quot;color: #9cdcfe;&quot;&gt;buff&lt;/span&gt;[&lt;span style=&quot;color: #9cdcfe;&quot;&gt;index&lt;/span&gt;&lt;span style=&quot;color: #d4d4d4;&quot;&gt;++&lt;/span&gt;] &lt;span style=&quot;color: #d4d4d4;&quot;&gt;=&lt;/span&gt;&lt;/div&gt;&lt;div style=&quot;color: rgb(204, 204, 204); line-height: 18px;&quot;&gt; &lt;span style=&quot;color: #9cdcfe;&quot;&gt;ch&lt;/span&gt;;&lt;/div&gt;&lt;/div&gt;&lt;/div&gt;" style="rounded=1;whiteSpace=wrap;html=1;labelBackgroundColor=none;flipH=1;flipV=1;shadow=0;labelBorderColor=none;fillColor=#333333;" vertex="1" parent="1">
                    <mxGeometry x="-1561.25" y="-1510" width="142.5" height="60" as="geometry"/>
                </mxCell>
                <mxCell id="224" value="yes" style="edgeStyle=none;html=1;labelBackgroundColor=none;fillColor=#333333;" edge="1" parent="1" source="210">
                    <mxGeometry x="-0.5" y="20" relative="1" as="geometry">
                        <mxPoint x="-1490" y="-1250" as="targetPoint"/>
                        <mxPoint as="offset"/>
                    </mxGeometry>
                </mxCell>
                <mxCell id="226" value="no" style="edgeStyle=none;html=1;entryX=0;entryY=0.5;entryDx=0;entryDy=0;labelBackgroundColor=none;fillColor=#333333;" edge="1" parent="1" source="210" target="206">
                    <mxGeometry x="-0.9322" y="-10" relative="1" as="geometry">
                        <Array as="points">
                            <mxPoint x="-1610" y="-1360"/>
                            <mxPoint x="-1610" y="-1560"/>
                            <mxPoint x="-1610" y="-1754"/>
                        </Array>
                        <mxPoint as="offset"/>
                    </mxGeometry>
                </mxCell>
                <mxCell id="210" value="&lt;div style=&quot;font-family: Menlo, Monaco, &amp;quot;Courier New&amp;quot;, monospace; font-weight: normal; font-size: 12px; line-height: 18px;&quot;&gt;&lt;span style=&quot;color: #cccccc;&quot;&gt;&lt;/span&gt;&lt;div style=&quot;line-height: 18px;&quot;&gt;&lt;div style=&quot;color: rgb(204, 204, 204); line-height: 18px;&quot;&gt;&lt;span style=&quot;color: #c586c0;&quot;&gt;if&lt;/span&gt; (&lt;/div&gt;&lt;div style=&quot;color: rgb(204, 204, 204); line-height: 18px;&quot;&gt;&lt;span style=&quot;color: #9cdcfe;&quot;&gt;ch&lt;/span&gt; &lt;span style=&quot;color: #d4d4d4;&quot;&gt;==&lt;/span&gt; &lt;span style=&quot;color: #ce9178;&quot;&gt;' '&lt;/span&gt; &lt;span style=&quot;color: #d4d4d4;&quot;&gt;||&lt;/span&gt;&lt;/div&gt;&lt;div style=&quot;color: rgb(204, 204, 204); line-height: 18px;&quot;&gt; &lt;span style=&quot;color: #9cdcfe;&quot;&gt;ch&lt;/span&gt; &lt;span style=&quot;color: #d4d4d4;&quot;&gt;==&lt;/span&gt; &lt;span style=&quot;color: #ce9178;&quot;&gt;'&lt;/span&gt;&lt;span style=&quot;color: #d7ba7d;&quot;&gt;\n&lt;/span&gt;&lt;span style=&quot;color: #ce9178;&quot;&gt;'&lt;/span&gt; &lt;span style=&quot;color: #d4d4d4;&quot;&gt;||&lt;/span&gt;&lt;/div&gt;&lt;div style=&quot;color: rgb(204, 204, 204); line-height: 18px;&quot;&gt; &lt;span style=&quot;color: #9cdcfe;&quot;&gt;ch&lt;/span&gt; &lt;span style=&quot;color: #d4d4d4;&quot;&gt;==&lt;/span&gt; &lt;span style=&quot;color: #ce9178;&quot;&gt;'&lt;/span&gt;&lt;span style=&quot;color: #d7ba7d;&quot;&gt;\r&lt;/span&gt;&lt;span style=&quot;color: #ce9178;&quot;&gt;'&lt;/span&gt;&lt;/div&gt;&lt;div style=&quot;color: rgb(204, 204, 204); line-height: 18px;&quot;&gt;)&lt;/div&gt;&lt;/div&gt;&lt;/div&gt;" style="rhombus;whiteSpace=wrap;html=1;labelBackgroundColor=none;flipH=1;flipV=1;shadow=0;labelBorderColor=none;fillColor=#333333;" vertex="1" parent="1">
                    <mxGeometry x="-1573.75" y="-1430" width="167.5" height="140" as="geometry"/>
                </mxCell>
                <mxCell id="223" style="edgeStyle=none;html=1;entryX=0.5;entryY=0;entryDx=0;entryDy=0;labelBackgroundColor=none;fillColor=#333333;" edge="1" parent="1" source="211" target="212">
                    <mxGeometry relative="1" as="geometry"/>
                </mxCell>
                <mxCell id="211" value="&lt;div style=&quot;font-family: Menlo, Monaco, &amp;quot;Courier New&amp;quot;, monospace; font-weight: normal; font-size: 12px; line-height: 18px;&quot;&gt;&lt;div style=&quot;line-height: 18px;&quot;&gt;&lt;div style=&quot;color: rgb(204, 204, 204); line-height: 18px;&quot;&gt;&lt;span style=&quot;color: #9cdcfe;&quot;&gt;buff&lt;/span&gt;[&lt;span style=&quot;color: #9cdcfe;&quot;&gt;index&lt;/span&gt;&lt;span style=&quot;color: #d4d4d4;&quot;&gt;++&lt;/span&gt;]&amp;nbsp;&lt;span style=&quot;color: rgb(212, 212, 212);&quot;&gt;=&lt;/span&gt;&lt;span style=&quot;&quot;&gt; &lt;/span&gt;&lt;span style=&quot;color: rgb(206, 145, 120);&quot;&gt;'&lt;/span&gt;&lt;span style=&quot;color: rgb(215, 186, 125);&quot;&gt;\0&lt;/span&gt;&lt;span style=&quot;color: rgb(206, 145, 120);&quot;&gt;'&lt;/span&gt;;&lt;br&gt;&lt;/div&gt;&lt;/div&gt;&lt;/div&gt;" style="rounded=1;whiteSpace=wrap;html=1;labelBackgroundColor=none;flipH=1;flipV=1;shadow=0;labelBorderColor=none;fillColor=#333333;" vertex="1" parent="1">
                    <mxGeometry x="-1561.25" y="-1250" width="142.5" height="60" as="geometry"/>
                </mxCell>
                <mxCell id="222" style="edgeStyle=none;html=1;entryX=0.5;entryY=0;entryDx=0;entryDy=0;labelBackgroundColor=none;fillColor=#333333;" edge="1" parent="1" source="212" target="213">
                    <mxGeometry relative="1" as="geometry"/>
                </mxCell>
                <mxCell id="212" value="&lt;div style=&quot;color: rgb(204, 204, 204); font-family: Menlo, Monaco, &amp;quot;Courier New&amp;quot;, monospace; line-height: 18px;&quot;&gt;&lt;span style=&quot;color: rgb(220, 220, 170);&quot;&gt;generate_gcode&lt;/span&gt;()&lt;/div&gt;" style="shape=process;whiteSpace=wrap;html=1;backgroundOutline=1;labelBackgroundColor=none;flipH=1;flipV=1;shadow=0;labelBorderColor=none;fillColor=#333333;" vertex="1" parent="1">
                    <mxGeometry x="-1565" y="-1160" width="150" height="58" as="geometry"/>
                </mxCell>
                <mxCell id="218" value="yes" style="edgeStyle=none;html=1;entryX=0;entryY=0.5;entryDx=0;entryDy=0;labelBackgroundColor=none;fillColor=#333333;" edge="1" parent="1" source="213" target="216">
                    <mxGeometry x="-0.0667" y="10" relative="1" as="geometry">
                        <mxPoint as="offset"/>
                    </mxGeometry>
                </mxCell>
                <mxCell id="221" value="no" style="edgeStyle=none;html=1;entryX=0.5;entryY=0;entryDx=0;entryDy=0;labelBackgroundColor=none;fillColor=#333333;" edge="1" parent="1" source="213" target="220">
                    <mxGeometry x="-0.3333" y="10" relative="1" as="geometry">
                        <mxPoint as="offset"/>
                    </mxGeometry>
                </mxCell>
                <mxCell id="213" value="&lt;div style=&quot;font-family: Menlo, Monaco, &amp;quot;Courier New&amp;quot;, monospace; font-weight: normal; font-size: 12px; line-height: 18px;&quot;&gt;&lt;span style=&quot;color: #cccccc;&quot;&gt;&lt;/span&gt;&lt;div style=&quot;line-height: 18px;&quot;&gt; &lt;span style=&quot;color: rgb(197, 134, 192);&quot;&gt;if(&lt;/span&gt;&lt;/div&gt;&lt;div style=&quot;line-height: 18px;&quot;&gt;&lt;span style=&quot;color: rgb(220, 220, 170);&quot;&gt;generate_gcode&lt;/span&gt;&lt;span style=&quot;color: rgb(204, 204, 204);&quot;&gt;()&lt;/span&gt;&lt;/div&gt;&lt;div style=&quot;line-height: 18px;&quot;&gt;&lt;span style=&quot;&quot;&gt;&lt;font color=&quot;#dcdcaa&quot;&gt;!&lt;/font&gt;&lt;/span&gt;&lt;span style=&quot;color: rgb(212, 212, 212);&quot;&gt;=&lt;/span&gt;&lt;span style=&quot;color: rgb(204, 204, 204);&quot;&gt; &lt;/span&gt;&lt;span style=&quot;color: rgb(79, 193, 255);&quot;&gt;SUCCESS&lt;/span&gt;&lt;/div&gt;&lt;div style=&quot;line-height: 18px;&quot;&gt;&lt;span style=&quot;color: rgb(197, 134, 192);&quot;&gt;)&lt;/span&gt;&lt;/div&gt;&lt;/div&gt;" style="rhombus;whiteSpace=wrap;html=1;labelBackgroundColor=none;flipH=1;flipV=1;shadow=0;labelBorderColor=none;fillColor=#333333;" vertex="1" parent="1">
                    <mxGeometry x="-1573.75" y="-1070" width="167.5" height="140" as="geometry"/>
                </mxCell>
                <mxCell id="219" style="edgeStyle=none;html=1;entryX=0.5;entryY=1;entryDx=0;entryDy=0;entryPerimeter=0;labelBackgroundColor=none;fillColor=#333333;" edge="1" parent="1" source="216" target="217">
                    <mxGeometry relative="1" as="geometry"/>
                </mxCell>
                <mxCell id="216" value="&lt;div style=&quot;color: rgb(204, 204, 204); font-family: Menlo, Monaco, &amp;quot;Courier New&amp;quot;, monospace; line-height: 18px;&quot;&gt;&lt;span style=&quot;color: #dcdcaa;&quot;&gt;ErrorHandler&lt;/span&gt;()&lt;/div&gt;" style="shape=process;whiteSpace=wrap;html=1;backgroundOutline=1;labelBackgroundColor=none;flipH=1;flipV=1;shadow=0;labelBorderColor=none;fillColor=#333333;" vertex="1" parent="1">
                    <mxGeometry x="-1350" y="-1029" width="150" height="58" as="geometry"/>
                </mxCell>
                <mxCell id="217" value="&lt;div style=&quot;color: rgb(204, 204, 204); font-family: Menlo, Monaco, &amp;quot;Courier New&amp;quot;, monospace; line-height: 18px;&quot;&gt;&lt;div style=&quot;line-height: 18px;&quot;&gt;&lt;div style=&quot;line-height: 18px;&quot;&gt;&lt;div style=&quot;line-height: 18px;&quot;&gt;&lt;div style=&quot;line-height: 18px;&quot;&gt;&lt;div style=&quot;line-height: 18px;&quot;&gt;&lt;span style=&quot;color: #9cdcfe;&quot;&gt;error&lt;/span&gt;&lt;/div&gt;&lt;/div&gt;&lt;/div&gt;&lt;/div&gt;&lt;/div&gt;&lt;/div&gt;" style="strokeWidth=2;html=1;shape=mxgraph.flowchart.terminator;whiteSpace=wrap;labelBackgroundColor=none;flipH=1;flipV=1;shadow=0;labelBorderColor=none;fillColor=#333333;" vertex="1" parent="1">
                    <mxGeometry x="-1350" y="-930" width="150" height="50" as="geometry"/>
                </mxCell>
                <mxCell id="230" style="edgeStyle=none;html=1;entryX=0;entryY=0.5;entryDx=0;entryDy=0;labelBackgroundColor=none;fillColor=#333333;" edge="1" parent="1" source="220" target="206">
                    <mxGeometry relative="1" as="geometry">
                        <Array as="points">
                            <mxPoint x="-1610" y="-870"/>
                            <mxPoint x="-1610" y="-1754"/>
                        </Array>
                    </mxGeometry>
                </mxCell>
                <mxCell id="220" value="&lt;div style=&quot;font-family: Menlo, Monaco, &amp;quot;Courier New&amp;quot;, monospace; font-weight: normal; font-size: 12px; line-height: 18px;&quot;&gt;&lt;div style=&quot;line-height: 18px;&quot;&gt;&lt;div style=&quot;line-height: 18px;&quot;&gt;&lt;font color=&quot;#9cdcfe&quot;&gt;index = 0&lt;/font&gt;&lt;/div&gt;&lt;/div&gt;&lt;/div&gt;" style="rounded=1;whiteSpace=wrap;html=1;labelBackgroundColor=none;flipH=1;flipV=1;shadow=0;labelBorderColor=none;fillColor=#333333;" vertex="1" parent="1">
                    <mxGeometry x="-1561.25" y="-900" width="142.5" height="60" as="geometry"/>
                </mxCell>
                <mxCell id="244" value="yes" style="edgeStyle=none;html=1;labelBackgroundColor=none;fillColor=#333333;" edge="1" parent="1" source="231" target="233">
                    <mxGeometry x="-0.3333" y="16" relative="1" as="geometry">
                        <mxPoint as="offset"/>
                    </mxGeometry>
                </mxCell>
                <mxCell id="245" value="no" style="edgeStyle=none;html=1;entryX=1;entryY=0.5;entryDx=0;entryDy=0;exitX=1;exitY=0.5;exitDx=0;exitDy=0;labelBackgroundColor=none;fillColor=#333333;" edge="1" parent="1" source="231" target="240">
                    <mxGeometry x="-0.9077" y="10" relative="1" as="geometry">
                        <Array as="points">
                            <mxPoint x="-910" y="-1620"/>
                            <mxPoint x="-910" y="-1230"/>
                        </Array>
                        <mxPoint as="offset"/>
                    </mxGeometry>
                </mxCell>
                <mxCell id="231" value="&lt;div style=&quot;font-family: Menlo, Monaco, &amp;quot;Courier New&amp;quot;, monospace; font-weight: normal; font-size: 12px; line-height: 18px;&quot;&gt;&lt;span style=&quot;color: #cccccc;&quot;&gt;&lt;/span&gt;&lt;div style=&quot;line-height: 18px;&quot;&gt; &lt;span style=&quot;color: rgb(197, 134, 192);&quot;&gt;if(&lt;/span&gt;&lt;/div&gt;&lt;div style=&quot;line-height: 18px;&quot;&gt;&lt;span style=&quot;color: rgb(156, 220, 254);&quot;&gt;index &amp;gt; 0&lt;/span&gt;&lt;br&gt;&lt;/div&gt;&lt;div style=&quot;line-height: 18px;&quot;&gt;&lt;span style=&quot;color: rgb(197, 134, 192);&quot;&gt;)&lt;/span&gt;&lt;/div&gt;&lt;/div&gt;" style="rhombus;whiteSpace=wrap;html=1;labelBackgroundColor=none;flipH=1;flipV=1;shadow=0;labelBorderColor=none;fillColor=#333333;" vertex="1" parent="1">
                    <mxGeometry x="-1120" y="-1690" width="167.5" height="140" as="geometry"/>
                </mxCell>
                <mxCell id="232" style="edgeStyle=none;html=1;entryX=0.5;entryY=0;entryDx=0;entryDy=0;labelBackgroundColor=none;fillColor=#333333;" edge="1" parent="1" source="233" target="236">
                    <mxGeometry relative="1" as="geometry"/>
                </mxCell>
                <mxCell id="233" value="&lt;div style=&quot;color: rgb(204, 204, 204); font-family: Menlo, Monaco, &amp;quot;Courier New&amp;quot;, monospace; line-height: 18px;&quot;&gt;&lt;span style=&quot;color: rgb(220, 220, 170);&quot;&gt;generate_gcode&lt;/span&gt;()&lt;/div&gt;" style="shape=process;whiteSpace=wrap;html=1;backgroundOutline=1;labelBackgroundColor=none;flipH=1;flipV=1;shadow=0;labelBorderColor=none;fillColor=#333333;" vertex="1" parent="1">
                    <mxGeometry x="-1111.25" y="-1520" width="150" height="58" as="geometry"/>
                </mxCell>
                <mxCell id="234" value="yes" style="edgeStyle=none;html=1;entryX=1;entryY=0.5;entryDx=0;entryDy=0;labelBackgroundColor=none;fillColor=#333333;" edge="1" parent="1" source="236" target="238">
                    <mxGeometry x="-0.2" y="-10" relative="1" as="geometry">
                        <mxPoint as="offset"/>
                    </mxGeometry>
                </mxCell>
                <mxCell id="235" value="no" style="edgeStyle=none;html=1;labelBackgroundColor=none;fillColor=#333333;" edge="1" parent="1" source="236">
                    <mxGeometry x="0.0051" y="16" relative="1" as="geometry">
                        <mxPoint x="-1036" y="-1260" as="targetPoint"/>
                        <mxPoint as="offset"/>
                    </mxGeometry>
                </mxCell>
                <mxCell id="236" value="&lt;div style=&quot;font-family: Menlo, Monaco, &amp;quot;Courier New&amp;quot;, monospace; font-weight: normal; font-size: 12px; line-height: 18px;&quot;&gt;&lt;span style=&quot;color: #cccccc;&quot;&gt;&lt;/span&gt;&lt;div style=&quot;line-height: 18px;&quot;&gt; &lt;span style=&quot;color: rgb(197, 134, 192);&quot;&gt;if(&lt;/span&gt;&lt;/div&gt;&lt;div style=&quot;line-height: 18px;&quot;&gt;&lt;span style=&quot;color: rgb(220, 220, 170);&quot;&gt;generate_gcode&lt;/span&gt;&lt;span style=&quot;color: rgb(204, 204, 204);&quot;&gt;()&lt;/span&gt;&lt;/div&gt;&lt;div style=&quot;line-height: 18px;&quot;&gt;&lt;span style=&quot;&quot;&gt;&lt;font color=&quot;#dcdcaa&quot;&gt;!&lt;/font&gt;&lt;/span&gt;&lt;span style=&quot;color: rgb(212, 212, 212);&quot;&gt;=&lt;/span&gt;&lt;span style=&quot;color: rgb(204, 204, 204);&quot;&gt; &lt;/span&gt;&lt;span style=&quot;color: rgb(79, 193, 255);&quot;&gt;SUCCESS&lt;/span&gt;&lt;/div&gt;&lt;div style=&quot;line-height: 18px;&quot;&gt;&lt;span style=&quot;color: rgb(197, 134, 192);&quot;&gt;)&lt;/span&gt;&lt;/div&gt;&lt;/div&gt;" style="rhombus;whiteSpace=wrap;html=1;labelBackgroundColor=none;flipH=1;flipV=1;shadow=0;labelBorderColor=none;fillColor=#333333;" vertex="1" parent="1">
                    <mxGeometry x="-1120" y="-1440" width="167.5" height="140" as="geometry"/>
                </mxCell>
                <mxCell id="237" style="edgeStyle=none;html=1;entryX=0.5;entryY=1;entryDx=0;entryDy=0;entryPerimeter=0;labelBackgroundColor=none;fillColor=#333333;" edge="1" parent="1" source="238" target="239">
                    <mxGeometry relative="1" as="geometry"/>
                </mxCell>
                <mxCell id="238" value="&lt;div style=&quot;color: rgb(204, 204, 204); font-family: Menlo, Monaco, &amp;quot;Courier New&amp;quot;, monospace; line-height: 18px;&quot;&gt;&lt;span style=&quot;color: #dcdcaa;&quot;&gt;ErrorHandler&lt;/span&gt;()&lt;/div&gt;" style="shape=process;whiteSpace=wrap;html=1;backgroundOutline=1;labelBackgroundColor=none;flipH=1;flipV=1;shadow=0;labelBorderColor=none;fillColor=#333333;" vertex="1" parent="1">
                    <mxGeometry x="-1320" y="-1399" width="150" height="58" as="geometry"/>
                </mxCell>
                <mxCell id="239" value="&lt;div style=&quot;color: rgb(204, 204, 204); font-family: Menlo, Monaco, &amp;quot;Courier New&amp;quot;, monospace; line-height: 18px;&quot;&gt;&lt;div style=&quot;line-height: 18px;&quot;&gt;&lt;div style=&quot;line-height: 18px;&quot;&gt;&lt;div style=&quot;line-height: 18px;&quot;&gt;&lt;div style=&quot;line-height: 18px;&quot;&gt;&lt;div style=&quot;line-height: 18px;&quot;&gt;&lt;span style=&quot;color: #9cdcfe;&quot;&gt;error&lt;/span&gt;&lt;/div&gt;&lt;/div&gt;&lt;/div&gt;&lt;/div&gt;&lt;/div&gt;&lt;/div&gt;" style="strokeWidth=2;html=1;shape=mxgraph.flowchart.terminator;whiteSpace=wrap;labelBackgroundColor=none;flipH=1;flipV=1;shadow=0;labelBorderColor=none;fillColor=#333333;" vertex="1" parent="1">
                    <mxGeometry x="-1320" y="-1300" width="150" height="50" as="geometry"/>
                </mxCell>
                <mxCell id="246" style="edgeStyle=none;html=1;labelBackgroundColor=none;fillColor=#333333;" edge="1" parent="1" source="240" target="241">
                    <mxGeometry relative="1" as="geometry"/>
                </mxCell>
                <mxCell id="240" value="&lt;div style=&quot;font-family: Menlo, Monaco, &amp;quot;Courier New&amp;quot;, monospace; font-weight: normal; font-size: 12px; line-height: 18px;&quot;&gt;&lt;div style=&quot;line-height: 18px;&quot;&gt;&lt;div style=&quot;line-height: 18px;&quot;&gt;&lt;div style=&quot;color: rgb(204, 204, 204); line-height: 18px;&quot;&gt;&lt;span style=&quot;color: #dcdcaa;&quot;&gt;fclose&lt;/span&gt;(&lt;span style=&quot;color: #9cdcfe;&quot;&gt;file&lt;/span&gt;)&lt;/div&gt;&lt;/div&gt;&lt;/div&gt;&lt;/div&gt;" style="rounded=1;whiteSpace=wrap;html=1;labelBackgroundColor=none;flipH=1;flipV=1;shadow=0;labelBorderColor=none;fillColor=#333333;" vertex="1" parent="1">
                    <mxGeometry x="-1107.5" y="-1260" width="142.5" height="60" as="geometry"/>
                </mxCell>
                <mxCell id="247" style="edgeStyle=none;html=1;entryX=0.5;entryY=1;entryDx=0;entryDy=0;entryPerimeter=0;labelBackgroundColor=none;fillColor=#333333;" edge="1" parent="1" source="241" target="242">
                    <mxGeometry relative="1" as="geometry"/>
                </mxCell>
                <mxCell id="241" value="&lt;div style=&quot;color: rgb(204, 204, 204); font-family: Menlo, Monaco, &amp;quot;Courier New&amp;quot;, monospace; line-height: 18px;&quot;&gt;&lt;div style=&quot;line-height: 18px;&quot;&gt;&lt;span style=&quot;color: #dcdcaa;&quot;&gt;HomeRobot&lt;/span&gt;()&lt;/div&gt;&lt;/div&gt;" style="shape=process;whiteSpace=wrap;html=1;backgroundOutline=1;labelBackgroundColor=none;flipH=1;flipV=1;shadow=0;labelBorderColor=none;fillColor=#333333;" vertex="1" parent="1">
                    <mxGeometry x="-1111.25" y="-1170" width="150" height="58" as="geometry"/>
                </mxCell>
                <mxCell id="242" value="&lt;div style=&quot;color: rgb(204, 204, 204); font-family: Menlo, Monaco, &amp;quot;Courier New&amp;quot;, monospace; line-height: 18px;&quot;&gt;&lt;span style=&quot;color: #4fc1ff;&quot;&gt;SUCCESS&lt;/span&gt;&lt;/div&gt;" style="strokeWidth=2;html=1;shape=mxgraph.flowchart.terminator;whiteSpace=wrap;labelBackgroundColor=none;flipH=1;flipV=1;shadow=0;labelBorderColor=none;fillColor=#333333;" vertex="1" parent="1">
                    <mxGeometry x="-1091.25" y="-1060" width="110" height="50" as="geometry"/>
                </mxCell>
                <mxCell id="250" value="yes" style="edgeStyle=none;html=1;entryX=0;entryY=0.5;entryDx=0;entryDy=0;labelBackgroundColor=none;fillColor=#333333;" edge="1" parent="1" source="248" target="249">
                    <mxGeometry x="-0.0068" y="-9" relative="1" as="geometry">
                        <mxPoint as="offset"/>
                    </mxGeometry>
                </mxCell>
                <mxCell id="254" value="no" style="edgeStyle=none;html=1;labelBackgroundColor=none;fillColor=#333333;" edge="1" parent="1" source="248" target="252">
                    <mxGeometry x="-0.3333" y="17" relative="1" as="geometry">
                        <mxPoint as="offset"/>
                    </mxGeometry>
                </mxCell>
                <mxCell id="248" value="&lt;div style=&quot;font-family: Menlo, Monaco, &amp;quot;Courier New&amp;quot;, monospace; font-weight: normal; font-size: 12px; line-height: 18px;&quot;&gt;&lt;span style=&quot;color: #cccccc;&quot;&gt;&lt;/span&gt;&lt;div style=&quot;line-height: 18px;&quot;&gt; &lt;span style=&quot;color: rgb(197, 134, 192);&quot;&gt;if(&lt;/span&gt;&lt;/div&gt;&lt;div style=&quot;line-height: 18px;&quot;&gt;&lt;span style=&quot;&quot;&gt;&lt;font color=&quot;#dcdcaa&quot;&gt;!&lt;/font&gt;&lt;/span&gt;&lt;span style=&quot;color: rgb(156, 220, 254);&quot;&gt;cursor&lt;/span&gt;&lt;span style=&quot;color: rgb(204, 204, 204);&quot;&gt;.&lt;/span&gt;&lt;span style=&quot;color: rgb(156, 220, 254);&quot;&gt;init&lt;/span&gt;&lt;/div&gt;&lt;div style=&quot;line-height: 18px;&quot;&gt;&lt;span style=&quot;color: rgb(197, 134, 192);&quot;&gt;)&lt;/span&gt;&lt;/div&gt;&lt;/div&gt;" style="rhombus;whiteSpace=wrap;html=1;labelBackgroundColor=none;flipH=1;flipV=1;shadow=0;labelBorderColor=none;fillColor=#333333;" vertex="1" parent="1">
                    <mxGeometry x="-780.63" y="-2210" width="167.5" height="140" as="geometry"/>
                </mxCell>
                <mxCell id="292" style="edgeStyle=none;html=1;labelBackgroundColor=none;fillColor=#333333;" edge="1" parent="1" source="249">
                    <mxGeometry relative="1" as="geometry">
                        <mxPoint x="-590" y="-2010" as="targetPoint"/>
                        <Array as="points">
                            <mxPoint x="-456" y="-2010"/>
                        </Array>
                    </mxGeometry>
                </mxCell>
                <mxCell id="249" value="&lt;div style=&quot;color: rgb(204, 204, 204); font-family: Menlo, Monaco, &amp;quot;Courier New&amp;quot;, monospace; line-height: 18px;&quot;&gt;&lt;span style=&quot;color: rgb(220, 220, 170);&quot;&gt;cursorConstructor&lt;/span&gt;()&lt;/div&gt;" style="shape=process;whiteSpace=wrap;html=1;backgroundOutline=1;labelBackgroundColor=none;flipH=1;flipV=1;shadow=0;labelBorderColor=none;fillColor=#333333;" vertex="1" parent="1">
                    <mxGeometry x="-545.6300000000001" y="-2168" width="180" height="58" as="geometry"/>
                </mxCell>
                <mxCell id="255" style="edgeStyle=none;html=1;labelBackgroundColor=none;fillColor=#333333;" edge="1" parent="1" source="252" target="253">
                    <mxGeometry relative="1" as="geometry"/>
                </mxCell>
                <mxCell id="252" value="&lt;div style=&quot;font-family: Menlo, Monaco, &amp;quot;Courier New&amp;quot;, monospace; line-height: 18px;&quot;&gt;&lt;span style=&quot;color: rgb(156, 220, 254);&quot;&gt;cursor&lt;/span&gt;&lt;span style=&quot;&quot;&gt;&lt;font color=&quot;#cccccc&quot;&gt;.&lt;/font&gt;&lt;font color=&quot;#dcdcaa&quot;&gt;testWord-Overflow&lt;/font&gt;&lt;/span&gt;&lt;font color=&quot;#cccccc&quot;&gt;()&lt;/font&gt;&lt;/div&gt;" style="shape=process;whiteSpace=wrap;html=1;backgroundOutline=1;labelBackgroundColor=none;flipH=1;flipV=1;shadow=0;labelBorderColor=none;fillColor=#333333;" vertex="1" parent="1">
                    <mxGeometry x="-800.005" y="-2040" width="206.25" height="58" as="geometry"/>
                </mxCell>
                <mxCell id="257" value="yes" style="edgeStyle=none;html=1;entryX=0;entryY=0.5;entryDx=0;entryDy=0;labelBackgroundColor=none;fillColor=#333333;" edge="1" parent="1" source="253" target="256">
                    <mxGeometry x="0.1215" y="-10" relative="1" as="geometry">
                        <mxPoint as="offset"/>
                    </mxGeometry>
                </mxCell>
                <mxCell id="291" style="edgeStyle=none;html=1;labelBackgroundColor=none;fillColor=#333333;" edge="1" parent="1" source="253" target="258">
                    <mxGeometry relative="1" as="geometry"/>
                </mxCell>
                <mxCell id="253" value="&lt;div style=&quot;font-family: Menlo, Monaco, &amp;quot;Courier New&amp;quot;, monospace; font-weight: normal; font-size: 12px; line-height: 18px;&quot;&gt;&lt;span style=&quot;color: #cccccc;&quot;&gt;&lt;/span&gt;&lt;div style=&quot;line-height: 18px;&quot;&gt; &lt;span style=&quot;color: rgb(197, 134, 192);&quot;&gt;if(&lt;/span&gt;&lt;/div&gt;&lt;div style=&quot;line-height: 18px;&quot;&gt;&lt;span style=&quot;color: rgb(156, 220, 254);&quot;&gt;cursor&lt;/span&gt;&lt;span style=&quot;&quot;&gt;&lt;font color=&quot;#cccccc&quot;&gt;.&lt;/font&gt;&lt;font color=&quot;#dcdcaa&quot;&gt;testWord-Overflow&lt;/font&gt;&lt;/span&gt;&lt;font color=&quot;#cccccc&quot;&gt;()&lt;/font&gt;&lt;br&gt;&lt;/div&gt;&lt;div style=&quot;line-height: 18px;&quot;&gt;&lt;span style=&quot;color: rgb(197, 134, 192);&quot;&gt;)&lt;/span&gt;&lt;/div&gt;&lt;/div&gt;" style="rhombus;whiteSpace=wrap;html=1;labelBackgroundColor=none;flipH=1;flipV=1;shadow=0;labelBorderColor=none;fillColor=#333333;" vertex="1" parent="1">
                    <mxGeometry x="-780.63" y="-1960" width="167.5" height="140" as="geometry"/>
                </mxCell>
                <mxCell id="293" style="edgeStyle=none;html=1;labelBackgroundColor=none;fillColor=#333333;" edge="1" parent="1" source="256">
                    <mxGeometry relative="1" as="geometry">
                        <mxPoint x="-690" y="-1780" as="targetPoint"/>
                        <Array as="points">
                            <mxPoint x="-486" y="-1780"/>
                        </Array>
                    </mxGeometry>
                </mxCell>
                <mxCell id="256" value="&lt;div style=&quot;font-family: Menlo, Monaco, &amp;quot;Courier New&amp;quot;, monospace; line-height: 18px;&quot;&gt;&lt;span style=&quot;color: rgb(156, 220, 254);&quot;&gt;cursor&lt;/span&gt;&lt;span style=&quot;&quot;&gt;&lt;font color=&quot;#cccccc&quot;&gt;.&lt;/font&gt;&lt;font color=&quot;#dcdcaa&quot;&gt;newline&lt;/font&gt;&lt;/span&gt;&lt;font color=&quot;#cccccc&quot;&gt;()&lt;/font&gt;&lt;/div&gt;" style="shape=process;whiteSpace=wrap;html=1;backgroundOutline=1;labelBackgroundColor=none;flipH=1;flipV=1;shadow=0;labelBorderColor=none;fillColor=#333333;" vertex="1" parent="1">
                    <mxGeometry x="-571.8800000000001" y="-1919" width="171.88" height="58" as="geometry"/>
                </mxCell>
                <mxCell id="295" value="yes" style="edgeStyle=none;html=1;labelBackgroundColor=none;fillColor=#333333;" edge="1" parent="1" source="258" target="259">
                    <mxGeometry x="-0.4857" y="17" relative="1" as="geometry">
                        <mxPoint as="offset"/>
                    </mxGeometry>
                </mxCell>
                <mxCell id="296" value="no" style="edgeStyle=none;html=1;entryX=1;entryY=0.5;entryDx=0;entryDy=0;entryPerimeter=0;labelBackgroundColor=none;fillColor=#333333;metaEdit=0;" edge="1" parent="1" source="258" target="294">
                    <mxGeometry x="0.1215" y="-9" relative="1" as="geometry">
                        <mxPoint as="offset"/>
                    </mxGeometry>
                </mxCell>
                <mxCell id="258" value="&lt;div style=&quot;font-family: Menlo, Monaco, &amp;quot;Courier New&amp;quot;, monospace; font-weight: normal; font-size: 12px; line-height: 18px;&quot;&gt;&lt;span style=&quot;color: #cccccc;&quot;&gt;&lt;/span&gt;&lt;div style=&quot;line-height: 18px;&quot;&gt; &lt;span style=&quot;color: rgb(197, 134, 192);&quot;&gt;if(&lt;/span&gt;&lt;/div&gt;&lt;div style=&quot;line-height: 18px;&quot;&gt;&lt;span style=&quot;color: rgb(212, 212, 212);&quot;&gt;*&lt;/span&gt;&lt;span style=&quot;color: rgb(156, 220, 254);&quot;&gt;text&lt;/span&gt;&lt;span style=&quot;color: rgb(204, 204, 204);&quot;&gt; &lt;/span&gt;&lt;span style=&quot;color: rgb(212, 212, 212);&quot;&gt;!=&lt;/span&gt;&lt;span style=&quot;color: rgb(204, 204, 204);&quot;&gt; &lt;/span&gt;&lt;span style=&quot;color: rgb(206, 145, 120);&quot;&gt;'&lt;/span&gt;&lt;span style=&quot;color: rgb(215, 186, 125);&quot;&gt;\0&lt;/span&gt;&lt;span style=&quot;color: rgb(206, 145, 120);&quot;&gt;'&lt;/span&gt;&lt;/div&gt;&lt;div style=&quot;line-height: 18px;&quot;&gt;&lt;span style=&quot;color: rgb(197, 134, 192);&quot;&gt;)&lt;/span&gt;&lt;/div&gt;&lt;/div&gt;" style="rhombus;whiteSpace=wrap;html=1;labelBackgroundColor=none;flipH=1;flipV=1;shadow=0;labelBorderColor=none;fillColor=#333333;" vertex="1" parent="1">
                    <mxGeometry x="-780.63" y="-1779" width="167.5" height="140" as="geometry"/>
                </mxCell>
                <mxCell id="271" value="no" style="edgeStyle=none;html=1;labelBackgroundColor=none;fillColor=#333333;" edge="1" parent="1" source="259" target="260">
                    <mxGeometry x="-0.1541" y="6" relative="1" as="geometry">
                        <mxPoint as="offset"/>
                    </mxGeometry>
                </mxCell>
                <mxCell id="273" value="yes" style="edgeStyle=none;html=1;entryX=0.5;entryY=0;entryDx=0;entryDy=0;labelBackgroundColor=none;fillColor=#333333;" edge="1" parent="1" source="259" target="263">
                    <mxGeometry x="-0.125" y="17" relative="1" as="geometry">
                        <mxPoint as="offset"/>
                    </mxGeometry>
                </mxCell>
                <mxCell id="259" value="&lt;div style=&quot;font-family: Menlo, Monaco, &amp;quot;Courier New&amp;quot;, monospace; font-weight: normal; font-size: 12px; line-height: 18px;&quot;&gt;&lt;span style=&quot;color: #cccccc;&quot;&gt;&lt;/span&gt;&lt;div style=&quot;line-height: 18px;&quot;&gt; &lt;span style=&quot;color: rgb(197, 134, 192);&quot;&gt;if(&lt;/span&gt;&lt;/div&gt;&lt;div style=&quot;line-height: 18px;&quot;&gt;&lt;span style=&quot;color: rgb(212, 212, 212);&quot;&gt;*&lt;/span&gt;&lt;span style=&quot;color: rgb(156, 220, 254);&quot;&gt;text&lt;/span&gt;&lt;span style=&quot;color: rgb(204, 204, 204);&quot;&gt;&amp;nbsp;=&lt;/span&gt;&lt;span style=&quot;color: rgb(212, 212, 212);&quot;&gt;=&lt;/span&gt;&lt;span style=&quot;color: rgb(204, 204, 204);&quot;&gt; &lt;/span&gt;&lt;span style=&quot;color: rgb(206, 145, 120);&quot;&gt;'&lt;/span&gt;&lt;font color=&quot;#d7ba7d&quot;&gt;&amp;nbsp;&lt;/font&gt;&lt;span style=&quot;color: rgb(206, 145, 120);&quot;&gt;'&lt;/span&gt;&lt;/div&gt;&lt;div style=&quot;line-height: 18px;&quot;&gt;&lt;span style=&quot;color: rgb(197, 134, 192);&quot;&gt;)&lt;/span&gt;&lt;/div&gt;&lt;/div&gt;" style="rhombus;whiteSpace=wrap;html=1;labelBackgroundColor=none;flipH=1;flipV=1;shadow=0;labelBorderColor=none;fillColor=#333333;" vertex="1" parent="1">
                    <mxGeometry x="-780.63" y="-1604" width="167.5" height="140" as="geometry"/>
                </mxCell>
                <mxCell id="272" value="no" style="edgeStyle=none;html=1;entryX=0;entryY=0.5;entryDx=0;entryDy=0;labelBackgroundColor=none;fillColor=#333333;" edge="1" parent="1" source="260" target="261">
                    <mxGeometry x="0.0339" y="6" relative="1" as="geometry">
                        <mxPoint as="offset"/>
                    </mxGeometry>
                </mxCell>
                <mxCell id="277" value="yes" style="edgeStyle=none;html=1;entryX=0.5;entryY=0;entryDx=0;entryDy=0;labelBackgroundColor=none;fillColor=#333333;" edge="1" parent="1" source="260" target="275">
                    <mxGeometry x="-0.125" y="15" relative="1" as="geometry">
                        <mxPoint as="offset"/>
                    </mxGeometry>
                </mxCell>
                <mxCell id="260" value="&lt;div style=&quot;font-family: Menlo, Monaco, &amp;quot;Courier New&amp;quot;, monospace; font-weight: normal; font-size: 12px; line-height: 18px;&quot;&gt;&lt;span style=&quot;color: #cccccc;&quot;&gt;&lt;/span&gt;&lt;div style=&quot;line-height: 18px;&quot;&gt; &lt;span style=&quot;color: rgb(197, 134, 192);&quot;&gt;if(&lt;/span&gt;&lt;/div&gt;&lt;div style=&quot;line-height: 18px;&quot;&gt;&lt;span style=&quot;color: rgb(212, 212, 212);&quot;&gt;*&lt;/span&gt;&lt;span style=&quot;color: rgb(156, 220, 254);&quot;&gt;text&lt;/span&gt;&lt;span style=&quot;color: rgb(204, 204, 204);&quot;&gt;&amp;nbsp;=&lt;/span&gt;&lt;span style=&quot;color: rgb(212, 212, 212);&quot;&gt;=&lt;/span&gt;&lt;span style=&quot;color: rgb(204, 204, 204);&quot;&gt; &lt;/span&gt;&lt;span style=&quot;color: rgb(206, 145, 120);&quot;&gt;'&lt;/span&gt;&lt;font color=&quot;#d7ba7d&quot;&gt;\n&lt;/font&gt;&lt;span style=&quot;color: rgb(206, 145, 120);&quot;&gt;'&lt;/span&gt;&lt;/div&gt;&lt;div style=&quot;line-height: 18px;&quot;&gt;&lt;span style=&quot;color: rgb(197, 134, 192);&quot;&gt;)&lt;/span&gt;&lt;/div&gt;&lt;/div&gt;" style="rhombus;whiteSpace=wrap;html=1;labelBackgroundColor=none;flipH=1;flipV=1;shadow=0;labelBorderColor=none;fillColor=#333333;" vertex="1" parent="1">
                    <mxGeometry x="-558.4399999999998" y="-1604" width="167.5" height="140" as="geometry"/>
                </mxCell>
                <mxCell id="278" value="yes" style="edgeStyle=none;html=1;labelBackgroundColor=none;fillColor=#333333;" edge="1" parent="1" source="261" target="276">
                    <mxGeometry x="-0.125" y="17" relative="1" as="geometry">
                        <mxPoint as="offset"/>
                    </mxGeometry>
                </mxCell>
                <mxCell id="303" value="no" style="edgeStyle=none;html=1;entryX=0.5;entryY=0;entryDx=0;entryDy=0;labelBackgroundColor=none;fillColor=#333333;exitX=1;exitY=0.5;exitDx=0;exitDy=0;" edge="1" parent="1" source="261" target="299">
                    <mxGeometry x="-0.9618" y="6" relative="1" as="geometry">
                        <Array as="points">
                            <mxPoint x="-100" y="-1534"/>
                            <mxPoint x="-100" y="-1020"/>
                            <mxPoint x="-697" y="-1020"/>
                        </Array>
                        <mxPoint as="offset"/>
                    </mxGeometry>
                </mxCell>
                <mxCell id="261" value="&lt;div style=&quot;font-family: Menlo, Monaco, &amp;quot;Courier New&amp;quot;, monospace; font-weight: normal; font-size: 12px; line-height: 18px;&quot;&gt;&lt;span style=&quot;color: #cccccc;&quot;&gt;&lt;/span&gt;&lt;div style=&quot;line-height: 18px;&quot;&gt; &lt;span style=&quot;color: rgb(197, 134, 192);&quot;&gt;if(&lt;/span&gt;&lt;/div&gt;&lt;div style=&quot;line-height: 18px;&quot;&gt;&lt;span style=&quot;color: rgb(212, 212, 212);&quot;&gt;*&lt;/span&gt;&lt;span style=&quot;color: rgb(156, 220, 254);&quot;&gt;text&lt;/span&gt;&lt;span style=&quot;color: rgb(204, 204, 204);&quot;&gt;&amp;nbsp;=&lt;/span&gt;&lt;span style=&quot;color: rgb(212, 212, 212);&quot;&gt;=&lt;/span&gt;&lt;span style=&quot;color: rgb(204, 204, 204);&quot;&gt; &lt;/span&gt;&lt;span style=&quot;color: rgb(206, 145, 120);&quot;&gt;'&lt;/span&gt;&lt;font color=&quot;#d7ba7d&quot;&gt;\r&lt;/font&gt;&lt;span style=&quot;color: rgb(206, 145, 120);&quot;&gt;'&lt;/span&gt;&lt;/div&gt;&lt;div style=&quot;line-height: 18px;&quot;&gt;&lt;span style=&quot;color: rgb(197, 134, 192);&quot;&gt;)&lt;/span&gt;&lt;/div&gt;&lt;/div&gt;" style="rhombus;whiteSpace=wrap;html=1;labelBackgroundColor=none;flipH=1;flipV=1;shadow=0;labelBorderColor=none;fillColor=#333333;" vertex="1" parent="1">
                    <mxGeometry x="-331.0899999999999" y="-1604" width="167.5" height="140" as="geometry"/>
                </mxCell>
                <mxCell id="274" style="edgeStyle=none;html=1;entryX=0.5;entryY=0;entryDx=0;entryDy=0;labelBackgroundColor=none;fillColor=#333333;" edge="1" parent="1" source="263" target="264">
                    <mxGeometry relative="1" as="geometry"/>
                </mxCell>
                <mxCell id="263" value="&lt;div style=&quot;font-family: Menlo, Monaco, &amp;quot;Courier New&amp;quot;, monospace; line-height: 18px;&quot;&gt;&lt;span style=&quot;color: rgb(156, 220, 254);&quot;&gt;cursor&lt;/span&gt;&lt;span style=&quot;&quot;&gt;&lt;font color=&quot;#cccccc&quot;&gt;.&lt;/font&gt;&lt;font color=&quot;#dcdcaa&quot;&gt;update&lt;/font&gt;&lt;/span&gt;&lt;font color=&quot;#cccccc&quot;&gt;()&lt;/font&gt;&lt;/div&gt;" style="shape=process;whiteSpace=wrap;html=1;backgroundOutline=1;labelBackgroundColor=none;flipH=1;flipV=1;shadow=0;labelBorderColor=none;fillColor=#333333;" vertex="1" parent="1">
                    <mxGeometry x="-782.8199999999999" y="-1432" width="171.88" height="58" as="geometry"/>
                </mxCell>
                <mxCell id="270" value="yes" style="edgeStyle=none;html=1;labelBackgroundColor=none;fillColor=#333333;" edge="1" parent="1" source="264" target="265">
                    <mxGeometry x="-0.4667" y="17" relative="1" as="geometry">
                        <mxPoint as="offset"/>
                    </mxGeometry>
                </mxCell>
                <mxCell id="287" value="no" style="edgeStyle=none;html=1;entryX=0;entryY=0.5;entryDx=0;entryDy=0;labelBackgroundColor=none;fillColor=#333333;" edge="1" parent="1" source="264" target="258">
                    <mxGeometry x="-0.8989" y="-12" relative="1" as="geometry">
                        <Array as="points">
                            <mxPoint x="-850" y="-1268"/>
                            <mxPoint x="-850" y="-1710"/>
                        </Array>
                        <mxPoint as="offset"/>
                    </mxGeometry>
                </mxCell>
                <mxCell id="264" value="&lt;div style=&quot;font-family: Menlo, Monaco, &amp;quot;Courier New&amp;quot;, monospace; font-weight: normal; font-size: 12px; line-height: 18px;&quot;&gt;&lt;span style=&quot;color: #cccccc;&quot;&gt;&lt;/span&gt;&lt;div style=&quot;line-height: 18px;&quot;&gt; &lt;span style=&quot;color: rgb(197, 134, 192);&quot;&gt;if(&lt;/span&gt;&lt;/div&gt;&lt;div style=&quot;line-height: 18px;&quot;&gt;&lt;span style=&quot;color: rgb(156, 220, 254);&quot;&gt;cursor&lt;/span&gt;&lt;span style=&quot;&quot;&gt;&lt;font color=&quot;#cccccc&quot;&gt;.&lt;/font&gt;&lt;font color=&quot;#dcdcaa&quot;&gt;update&lt;/font&gt;&lt;/span&gt;&lt;font color=&quot;#cccccc&quot;&gt;() !=&amp;nbsp;&lt;/font&gt;&lt;span style=&quot;color: rgb(79, 193, 255);&quot;&gt;SUCCESS&lt;/span&gt;&lt;/div&gt;&lt;div style=&quot;line-height: 18px;&quot;&gt;&lt;span style=&quot;color: rgb(197, 134, 192);&quot;&gt;)&lt;/span&gt;&lt;/div&gt;&lt;/div&gt;" style="rhombus;whiteSpace=wrap;html=1;labelBackgroundColor=none;flipH=1;flipV=1;shadow=0;labelBorderColor=none;fillColor=#333333;" vertex="1" parent="1">
                    <mxGeometry x="-780.63" y="-1338" width="167.5" height="140" as="geometry"/>
                </mxCell>
                <mxCell id="265" value="&lt;div style=&quot;color: rgb(204, 204, 204); font-family: Menlo, Monaco, &amp;quot;Courier New&amp;quot;, monospace; line-height: 18px;&quot;&gt;&lt;div style=&quot;line-height: 18px;&quot;&gt;&lt;span style=&quot;color: #4fc1ff;&quot;&gt;error&lt;/span&gt;&lt;/div&gt;&lt;/div&gt;" style="strokeWidth=2;html=1;shape=mxgraph.flowchart.terminator;whiteSpace=wrap;labelBackgroundColor=none;flipH=1;flipV=1;shadow=0;labelBorderColor=none;fillColor=#333333;" vertex="1" parent="1">
                    <mxGeometry x="-751.88" y="-1168" width="110" height="50" as="geometry"/>
                </mxCell>
                <mxCell id="281" style="edgeStyle=none;html=1;entryX=0.5;entryY=0;entryDx=0;entryDy=0;labelBackgroundColor=none;fillColor=#333333;" edge="1" parent="1" source="275" target="279">
                    <mxGeometry relative="1" as="geometry"/>
                </mxCell>
                <mxCell id="275" value="&lt;div style=&quot;font-family: Menlo, Monaco, &amp;quot;Courier New&amp;quot;, monospace; line-height: 18px;&quot;&gt;&lt;span style=&quot;color: rgb(156, 220, 254);&quot;&gt;cursor&lt;/span&gt;&lt;span style=&quot;&quot;&gt;&lt;font color=&quot;#cccccc&quot;&gt;.&lt;/font&gt;&lt;font color=&quot;#dcdcaa&quot;&gt;newline&lt;/font&gt;&lt;/span&gt;&lt;font color=&quot;#cccccc&quot;&gt;()&lt;/font&gt;&lt;/div&gt;" style="shape=process;whiteSpace=wrap;html=1;backgroundOutline=1;labelBackgroundColor=none;flipH=1;flipV=1;shadow=0;labelBorderColor=none;fillColor=#333333;" vertex="1" parent="1">
                    <mxGeometry x="-560.6299999999999" y="-1432" width="171.88" height="58" as="geometry"/>
                </mxCell>
                <mxCell id="282" style="edgeStyle=none;html=1;labelBackgroundColor=none;fillColor=#333333;" edge="1" parent="1" source="276" target="280">
                    <mxGeometry relative="1" as="geometry"/>
                </mxCell>
                <mxCell id="276" value="&lt;div style=&quot;font-family: Menlo, Monaco, &amp;quot;Courier New&amp;quot;, monospace; line-height: 18px;&quot;&gt;&lt;span style=&quot;color: rgb(156, 220, 254);&quot;&gt;cursor&lt;/span&gt;&lt;span style=&quot;&quot;&gt;&lt;font color=&quot;#cccccc&quot;&gt;.&lt;/font&gt;&lt;/span&gt;&lt;span style=&quot;color: rgb(220, 220, 170);&quot;&gt;carriagereturn&lt;/span&gt;&lt;span style=&quot;color: rgb(204, 204, 204);&quot;&gt;()&lt;/span&gt;&lt;br&gt;&lt;/div&gt;" style="shape=process;whiteSpace=wrap;html=1;backgroundOutline=1;labelBackgroundColor=none;flipH=1;flipV=1;shadow=0;labelBorderColor=none;fillColor=#333333;" vertex="1" parent="1">
                    <mxGeometry x="-358.43499999999995" y="-1432" width="222.19" height="58" as="geometry"/>
                </mxCell>
                <mxCell id="286" value="yes" style="edgeStyle=none;html=1;entryX=0.5;entryY=1;entryDx=0;entryDy=0;entryPerimeter=0;labelBackgroundColor=none;fillColor=#333333;" edge="1" parent="1" source="279" target="283">
                    <mxGeometry x="-0.4667" y="15" relative="1" as="geometry">
                        <mxPoint as="offset"/>
                    </mxGeometry>
                </mxCell>
                <mxCell id="297" value="no" style="edgeStyle=none;html=1;entryX=0;entryY=0.5;entryDx=0;entryDy=0;labelBackgroundColor=none;fillColor=#333333;" edge="1" parent="1" source="279" target="258">
                    <mxGeometry x="-0.9437" y="-10" relative="1" as="geometry">
                        <Array as="points">
                            <mxPoint x="-590" y="-1270"/>
                            <mxPoint x="-590" y="-1080"/>
                            <mxPoint x="-850" y="-1080"/>
                            <mxPoint x="-850" y="-1709"/>
                        </Array>
                        <mxPoint x="10" y="-10" as="offset"/>
                    </mxGeometry>
                </mxCell>
                <mxCell id="279" value="&lt;div style=&quot;font-family: Menlo, Monaco, &amp;quot;Courier New&amp;quot;, monospace; font-weight: normal; font-size: 12px; line-height: 18px;&quot;&gt;&lt;span style=&quot;color: #cccccc;&quot;&gt;&lt;/span&gt;&lt;div style=&quot;line-height: 18px;&quot;&gt; &lt;span style=&quot;color: rgb(197, 134, 192);&quot;&gt;if(&lt;/span&gt;&lt;/div&gt;&lt;div style=&quot;line-height: 18px;&quot;&gt;&lt;span style=&quot;color: rgb(156, 220, 254);&quot;&gt;cursor&lt;/span&gt;&lt;span style=&quot;&quot;&gt;&lt;font color=&quot;#cccccc&quot;&gt;.&lt;/font&gt;&lt;font color=&quot;#dcdcaa&quot;&gt;update&lt;/font&gt;&lt;/span&gt;&lt;font color=&quot;#cccccc&quot;&gt;() !=&amp;nbsp;&lt;/font&gt;&lt;span style=&quot;color: rgb(79, 193, 255);&quot;&gt;SUCCESS&lt;/span&gt;&lt;/div&gt;&lt;div style=&quot;line-height: 18px;&quot;&gt;&lt;span style=&quot;color: rgb(197, 134, 192);&quot;&gt;)&lt;/span&gt;&lt;/div&gt;&lt;/div&gt;" style="rhombus;whiteSpace=wrap;html=1;labelBackgroundColor=none;flipH=1;flipV=1;shadow=0;labelBorderColor=none;fillColor=#333333;" vertex="1" parent="1">
                    <mxGeometry x="-558.4399999999998" y="-1338" width="167.5" height="140" as="geometry"/>
                </mxCell>
                <mxCell id="285" value="yes" style="edgeStyle=none;html=1;entryX=0.5;entryY=1;entryDx=0;entryDy=0;entryPerimeter=0;labelBackgroundColor=none;fillColor=#333333;" edge="1" parent="1" source="280" target="284">
                    <mxGeometry x="-0.6" y="17" relative="1" as="geometry">
                        <mxPoint as="offset"/>
                    </mxGeometry>
                </mxCell>
                <mxCell id="298" value="no" style="edgeStyle=none;html=1;entryX=0;entryY=0.5;entryDx=0;entryDy=0;labelBackgroundColor=none;fillColor=#333333;" edge="1" parent="1" source="280" target="258">
                    <mxGeometry x="-0.9589" y="-12" relative="1" as="geometry">
                        <Array as="points">
                            <mxPoint x="-370" y="-1268"/>
                            <mxPoint x="-370" y="-1080"/>
                            <mxPoint x="-850" y="-1080"/>
                            <mxPoint x="-850" y="-1709"/>
                        </Array>
                        <mxPoint as="offset"/>
                    </mxGeometry>
                </mxCell>
                <mxCell id="280" value="&lt;div style=&quot;font-family: Menlo, Monaco, &amp;quot;Courier New&amp;quot;, monospace; font-weight: normal; font-size: 12px; line-height: 18px;&quot;&gt;&lt;span style=&quot;color: #cccccc;&quot;&gt;&lt;/span&gt;&lt;div style=&quot;line-height: 18px;&quot;&gt; &lt;span style=&quot;color: rgb(197, 134, 192);&quot;&gt;if(&lt;/span&gt;&lt;/div&gt;&lt;div style=&quot;line-height: 18px;&quot;&gt;&lt;span style=&quot;color: rgb(156, 220, 254);&quot;&gt;cursor&lt;/span&gt;&lt;span style=&quot;&quot;&gt;&lt;font color=&quot;#cccccc&quot;&gt;.&lt;/font&gt;&lt;font color=&quot;#dcdcaa&quot;&gt;update&lt;/font&gt;&lt;/span&gt;&lt;font color=&quot;#cccccc&quot;&gt;() !=&amp;nbsp;&lt;/font&gt;&lt;span style=&quot;color: rgb(79, 193, 255);&quot;&gt;SUCCESS&lt;/span&gt;&lt;/div&gt;&lt;div style=&quot;line-height: 18px;&quot;&gt;&lt;span style=&quot;color: rgb(197, 134, 192);&quot;&gt;)&lt;/span&gt;&lt;/div&gt;&lt;/div&gt;" style="rhombus;whiteSpace=wrap;html=1;labelBackgroundColor=none;flipH=1;flipV=1;shadow=0;labelBorderColor=none;fillColor=#333333;" vertex="1" parent="1">
                    <mxGeometry x="-331.0899999999999" y="-1338" width="167.5" height="140" as="geometry"/>
                </mxCell>
                <mxCell id="283" value="&lt;div style=&quot;color: rgb(204, 204, 204); font-family: Menlo, Monaco, &amp;quot;Courier New&amp;quot;, monospace; line-height: 18px;&quot;&gt;&lt;div style=&quot;line-height: 18px;&quot;&gt;&lt;span style=&quot;color: #4fc1ff;&quot;&gt;error&lt;/span&gt;&lt;/div&gt;&lt;/div&gt;" style="strokeWidth=2;html=1;shape=mxgraph.flowchart.terminator;whiteSpace=wrap;labelBackgroundColor=none;flipH=1;flipV=1;shadow=0;labelBorderColor=none;fillColor=#333333;" vertex="1" parent="1">
                    <mxGeometry x="-529.6899999999998" y="-1168" width="110" height="50" as="geometry"/>
                </mxCell>
                <mxCell id="284" value="&lt;div style=&quot;color: rgb(204, 204, 204); font-family: Menlo, Monaco, &amp;quot;Courier New&amp;quot;, monospace; line-height: 18px;&quot;&gt;&lt;div style=&quot;line-height: 18px;&quot;&gt;&lt;span style=&quot;color: #4fc1ff;&quot;&gt;error&lt;/span&gt;&lt;/div&gt;&lt;/div&gt;" style="strokeWidth=2;html=1;shape=mxgraph.flowchart.terminator;whiteSpace=wrap;labelBackgroundColor=none;flipH=1;flipV=1;shadow=0;labelBorderColor=none;fillColor=#333333;" vertex="1" parent="1">
                    <mxGeometry x="-302.3399999999999" y="-1166" width="110" height="50" as="geometry"/>
                </mxCell>
                <mxCell id="294" value="&lt;div style=&quot;color: rgb(204, 204, 204); font-family: Menlo, Monaco, &amp;quot;Courier New&amp;quot;, monospace; line-height: 18px;&quot;&gt;&lt;span style=&quot;color: #4fc1ff;&quot;&gt;SUCCESS&lt;/span&gt;&lt;/div&gt;" style="strokeWidth=2;html=1;shape=mxgraph.flowchart.terminator;whiteSpace=wrap;labelBackgroundColor=none;flipH=1;flipV=1;shadow=0;labelBorderColor=none;fillColor=#333333;" vertex="1" parent="1">
                    <mxGeometry x="-571.8800000000001" y="-1734" width="110" height="50" as="geometry"/>
                </mxCell>
                <mxCell id="304" style="edgeStyle=none;html=1;labelBackgroundColor=none;fillColor=#333333;" edge="1" parent="1" source="299" target="300">
                    <mxGeometry relative="1" as="geometry"/>
                </mxCell>
                <mxCell id="299" value="&lt;div style=&quot;font-family: Menlo, Monaco, &amp;quot;Courier New&amp;quot;, monospace; line-height: 18px;&quot;&gt;&lt;span style=&quot;color: rgb(156, 220, 254);&quot;&gt;fontChar =&lt;/span&gt;&lt;/div&gt;&lt;div style=&quot;font-family: Menlo, Monaco, &amp;quot;Courier New&amp;quot;, monospace; line-height: 18px;&quot;&gt;&lt;span style=&quot;color: rgb(156, 220, 254);&quot;&gt;fontData&lt;/span&gt;&lt;span style=&quot;color: rgb(204, 204, 204);&quot;&gt;-&amp;gt;&lt;/span&gt;&lt;span style=&quot;&quot;&gt;&lt;font color=&quot;#dcdcaa&quot;&gt;lookup&lt;/font&gt;&lt;/span&gt;&lt;font color=&quot;#cccccc&quot;&gt;()&lt;/font&gt;&lt;/div&gt;" style="shape=process;whiteSpace=wrap;html=1;backgroundOutline=1;labelBackgroundColor=none;flipH=1;flipV=1;shadow=0;labelBorderColor=none;fillColor=#333333;" vertex="1" parent="1">
                    <mxGeometry x="-782.8199999999999" y="-960" width="171.88" height="58" as="geometry"/>
                </mxCell>
                <mxCell id="305" value="yes" style="edgeStyle=none;html=1;entryX=0;entryY=0.5;entryDx=0;entryDy=0;labelBackgroundColor=none;fillColor=#333333;" edge="1" parent="1" source="300" target="301">
                    <mxGeometry x="0.0002" y="11" relative="1" as="geometry">
                        <mxPoint as="offset"/>
                    </mxGeometry>
                </mxCell>
                <mxCell id="308" value="no" style="edgeStyle=none;html=1;labelBackgroundColor=none;fillColor=#333333;" edge="1" parent="1" source="300" target="307">
                    <mxGeometry x="0.1154" y="7" relative="1" as="geometry">
                        <mxPoint as="offset"/>
                    </mxGeometry>
                </mxCell>
                <mxCell id="300" value="&lt;div style=&quot;font-family: Menlo, Monaco, &amp;quot;Courier New&amp;quot;, monospace; font-weight: normal; font-size: 12px; line-height: 18px;&quot;&gt;&lt;span style=&quot;color: #cccccc;&quot;&gt;&lt;/span&gt;&lt;div style=&quot;line-height: 18px;&quot;&gt; &lt;span style=&quot;color: rgb(197, 134, 192);&quot;&gt;if(&lt;/span&gt;&lt;/div&gt;&lt;div style=&quot;line-height: 18px;&quot;&gt;&lt;span style=&quot;&quot;&gt;&lt;font color=&quot;#dcdcaa&quot;&gt;!&lt;/font&gt;&lt;/span&gt;&lt;span style=&quot;color: rgb(156, 220, 254);&quot;&gt;fontChar&lt;/span&gt;&lt;/div&gt;&lt;div style=&quot;line-height: 18px;&quot;&gt;&lt;span style=&quot;color: rgb(197, 134, 192);&quot;&gt;)&lt;/span&gt;&lt;/div&gt;&lt;/div&gt;" style="rhombus;whiteSpace=wrap;html=1;labelBackgroundColor=none;flipH=1;flipV=1;shadow=0;labelBorderColor=none;fillColor=#333333;" vertex="1" parent="1">
                    <mxGeometry x="-780.63" y="-869" width="167.5" height="140" as="geometry"/>
                </mxCell>
                <mxCell id="306" style="edgeStyle=none;html=1;labelBackgroundColor=none;fillColor=#333333;" edge="1" parent="1" source="301" target="302">
                    <mxGeometry relative="1" as="geometry"/>
                </mxCell>
                <mxCell id="301" value="&lt;div style=&quot;color: rgb(204, 204, 204); font-family: Menlo, Monaco, &amp;quot;Courier New&amp;quot;, monospace; line-height: 18px;&quot;&gt;&lt;span style=&quot;color: #dcdcaa;&quot;&gt;ErrorHandler&lt;/span&gt;()&lt;/div&gt;" style="shape=process;whiteSpace=wrap;html=1;backgroundOutline=1;labelBackgroundColor=none;flipH=1;flipV=1;shadow=0;labelBorderColor=none;fillColor=#333333;" vertex="1" parent="1">
                    <mxGeometry x="-566.88" y="-828" width="150" height="58" as="geometry"/>
                </mxCell>
                <mxCell id="302" value="&lt;div style=&quot;color: rgb(204, 204, 204); font-family: Menlo, Monaco, &amp;quot;Courier New&amp;quot;, monospace; line-height: 18px;&quot;&gt;&lt;div style=&quot;line-height: 18px;&quot;&gt;&lt;div style=&quot;line-height: 18px;&quot;&gt;&lt;div style=&quot;line-height: 18px;&quot;&gt;&lt;div style=&quot;line-height: 18px;&quot;&gt;&lt;span style=&quot;color: #4fc1ff;&quot;&gt;FONT_CHARACTER_NOT_FOUND&lt;/span&gt;&lt;/div&gt;&lt;/div&gt;&lt;/div&gt;&lt;/div&gt;&lt;/div&gt;" style="strokeWidth=2;html=1;shape=mxgraph.flowchart.terminator;whiteSpace=wrap;labelBackgroundColor=none;flipH=1;flipV=1;shadow=0;labelBorderColor=none;fillColor=#333333;" vertex="1" parent="1">
                    <mxGeometry x="-606.88" y="-733" width="230" height="60" as="geometry"/>
                </mxCell>
                <mxCell id="310" value="yes" style="edgeStyle=none;html=1;labelBackgroundColor=none;fillColor=#333333;" edge="1" parent="1" source="307" target="309">
                    <mxGeometry x="0.1875" y="17" relative="1" as="geometry">
                        <mxPoint as="offset"/>
                    </mxGeometry>
                </mxCell>
                <mxCell id="312" value="no" style="edgeStyle=none;html=1;labelBackgroundColor=none;fillColor=#333333;" edge="1" parent="1" source="307">
                    <mxGeometry relative="1" as="geometry">
                        <mxPoint x="-534.38" y="-598" as="targetPoint"/>
                    </mxGeometry>
                </mxCell>
                <mxCell id="307" value="&lt;div style=&quot;font-family: Menlo, Monaco, &amp;quot;Courier New&amp;quot;, monospace; font-weight: normal; font-size: 12px; line-height: 18px;&quot;&gt;&lt;span style=&quot;color: #cccccc;&quot;&gt;&lt;/span&gt;&lt;div style=&quot;line-height: 18px;&quot;&gt;&lt;div style=&quot;color: rgb(204, 204, 204); line-height: 18px;&quot;&gt;&lt;span style=&quot;color: #c586c0;&quot;&gt;for&lt;/span&gt; (&lt;/div&gt;&lt;div style=&quot;color: rgb(204, 204, 204); line-height: 18px;&quot;&gt;&lt;span style=&quot;color: #4ec9b0;&quot;&gt;uint8_t&lt;/span&gt; &lt;span style=&quot;color: #9cdcfe;&quot;&gt;i&lt;/span&gt; &lt;span style=&quot;color: #d4d4d4;&quot;&gt;=&lt;/span&gt; &lt;span style=&quot;color: #b5cea8;&quot;&gt;0&lt;/span&gt;;&lt;/div&gt;&lt;div style=&quot;line-height: 18px;&quot;&gt;&lt;font color=&quot;#cccccc&quot;&gt;&amp;nbsp; &lt;/font&gt;&lt;span style=&quot;color: rgb(156, 220, 254);&quot;&gt;i&lt;/span&gt; &lt;span style=&quot;color: rgb(212, 212, 212);&quot;&gt;&amp;lt;&lt;/span&gt;&lt;font color=&quot;#cccccc&quot;&gt;&amp;nbsp;&lt;/font&gt;&lt;span style=&quot;color: rgb(156, 220, 254);&quot;&gt;numStrokes&lt;/span&gt;&lt;font color=&quot;#cccccc&quot;&gt;;&lt;/font&gt;&lt;/div&gt;&lt;div style=&quot;color: rgb(204, 204, 204); line-height: 18px;&quot;&gt;&amp;nbsp; &lt;span style=&quot;color: #9cdcfe;&quot;&gt;i&lt;/span&gt;&lt;span style=&quot;color: #d4d4d4;&quot;&gt;++&lt;/span&gt;&lt;span style=&quot;&quot;&gt;)&lt;/span&gt;&lt;/div&gt;&lt;/div&gt;&lt;/div&gt;" style="rhombus;whiteSpace=wrap;html=1;labelBackgroundColor=none;flipH=1;flipV=1;shadow=0;labelBorderColor=none;fillColor=#333333;" vertex="1" parent="1">
                    <mxGeometry x="-786.88" y="-677" width="180" height="158" as="geometry"/>
                </mxCell>
                <mxCell id="311" style="edgeStyle=none;html=1;entryX=0;entryY=0.5;entryDx=0;entryDy=0;exitX=0;exitY=0.5;exitDx=0;exitDy=0;labelBackgroundColor=none;fillColor=#333333;" edge="1" parent="1" source="309" target="307">
                    <mxGeometry relative="1" as="geometry">
                        <Array as="points">
                            <mxPoint x="-840" y="-458"/>
                            <mxPoint x="-840" y="-598"/>
                        </Array>
                    </mxGeometry>
                </mxCell>
                <mxCell id="309" value="&lt;div style=&quot;color: rgb(204, 204, 204); font-family: Menlo, Monaco, &amp;quot;Courier New&amp;quot;, monospace; line-height: 18px;&quot;&gt;&lt;span style=&quot;color: rgb(220, 220, 170);&quot;&gt;SendStoke&lt;/span&gt;()&lt;/div&gt;" style="shape=process;whiteSpace=wrap;html=1;backgroundOutline=1;labelBackgroundColor=none;flipH=1;flipV=1;shadow=0;labelBorderColor=none;fillColor=#333333;" vertex="1" parent="1">
                    <mxGeometry x="-771.88" y="-487" width="150" height="58" as="geometry"/>
                </mxCell>
                <mxCell id="315" style="edgeStyle=none;html=1;labelBackgroundColor=none;fillColor=#333333;" edge="1" parent="1" source="313" target="314">
                    <mxGeometry relative="1" as="geometry"/>
                </mxCell>
                <mxCell id="313" value="&lt;div style=&quot;font-family: Menlo, Monaco, &amp;quot;Courier New&amp;quot;, monospace; line-height: 18px;&quot;&gt;&lt;span style=&quot;color: rgb(156, 220, 254);&quot;&gt;cursor&lt;/span&gt;&lt;span style=&quot;&quot;&gt;&lt;font color=&quot;#cccccc&quot;&gt;.&lt;/font&gt;&lt;font color=&quot;#dcdcaa&quot;&gt;update&lt;/font&gt;&lt;/span&gt;&lt;font color=&quot;#cccccc&quot;&gt;()&lt;/font&gt;&lt;/div&gt;" style="shape=process;whiteSpace=wrap;html=1;backgroundOutline=1;labelBackgroundColor=none;flipH=1;flipV=1;shadow=0;labelBorderColor=none;fillColor=#333333;" vertex="1" parent="1">
                    <mxGeometry x="-577.82" y="-627" width="171.88" height="58" as="geometry"/>
                </mxCell>
                <mxCell id="314" value="&lt;div style=&quot;font-family: Menlo, Monaco, &amp;quot;Courier New&amp;quot;, monospace; font-weight: normal; font-size: 12px; line-height: 18px;&quot;&gt;&lt;span style=&quot;color: #cccccc;&quot;&gt;&lt;/span&gt;&lt;div style=&quot;line-height: 18px;&quot;&gt; &lt;span style=&quot;color: rgb(197, 134, 192);&quot;&gt;if(&lt;/span&gt;&lt;/div&gt;&lt;div style=&quot;line-height: 18px;&quot;&gt;&lt;span style=&quot;color: rgb(156, 220, 254);&quot;&gt;cursor&lt;/span&gt;&lt;span style=&quot;&quot;&gt;&lt;font color=&quot;#cccccc&quot;&gt;.&lt;/font&gt;&lt;font color=&quot;#dcdcaa&quot;&gt;update&lt;/font&gt;&lt;/span&gt;&lt;font color=&quot;#cccccc&quot;&gt;() !=&amp;nbsp;&lt;/font&gt;&lt;span style=&quot;color: rgb(79, 193, 255);&quot;&gt;SUCCESS&lt;/span&gt;&lt;/div&gt;&lt;div style=&quot;line-height: 18px;&quot;&gt;&lt;span style=&quot;color: rgb(197, 134, 192);&quot;&gt;)&lt;/span&gt;&lt;/div&gt;&lt;/div&gt;" style="rhombus;whiteSpace=wrap;html=1;labelBackgroundColor=none;flipH=1;flipV=1;shadow=0;labelBorderColor=none;fillColor=#333333;" vertex="1" parent="1">
                    <mxGeometry x="-575.63" y="-537" width="167.5" height="140" as="geometry"/>
                </mxCell>
                <mxCell id="316" value="yes" style="edgeStyle=none;html=1;exitX=0.5;exitY=1;exitDx=0;exitDy=0;labelBackgroundColor=none;fillColor=#333333;" edge="1" parent="1" target="317" source="314">
                    <mxGeometry x="-0.5333" y="12" relative="1" as="geometry">
                        <mxPoint x="-448.43999999999994" y="-397" as="sourcePoint"/>
                        <mxPoint as="offset"/>
                    </mxGeometry>
                </mxCell>
                <mxCell id="317" value="&lt;div style=&quot;color: rgb(204, 204, 204); font-family: Menlo, Monaco, &amp;quot;Courier New&amp;quot;, monospace; line-height: 18px;&quot;&gt;&lt;div style=&quot;line-height: 18px;&quot;&gt;&lt;span style=&quot;color: #4fc1ff;&quot;&gt;error&lt;/span&gt;&lt;/div&gt;&lt;/div&gt;" style="strokeWidth=2;html=1;shape=mxgraph.flowchart.terminator;whiteSpace=wrap;labelBackgroundColor=none;flipH=1;flipV=1;shadow=0;labelBorderColor=none;fillColor=#333333;" vertex="1" parent="1">
                    <mxGeometry x="-546.88" y="-367" width="110" height="50" as="geometry"/>
                </mxCell>
                <mxCell id="318" value="no" style="edgeStyle=none;html=1;entryX=1;entryY=0.5;entryDx=0;entryDy=0;entryPerimeter=0;exitX=1;exitY=0.5;exitDx=0;exitDy=0;labelBackgroundColor=none;fillColor=#333333;" edge="1" parent="1" target="319" source="314">
                    <mxGeometry x="-0.1175" y="13" relative="1" as="geometry">
                        <mxPoint x="-364.6899999999995" y="-467.0000000000002" as="sourcePoint"/>
                        <mxPoint as="offset"/>
                    </mxGeometry>
                </mxCell>
                <mxCell id="319" value="&lt;div style=&quot;color: rgb(204, 204, 204); font-family: Menlo, Monaco, &amp;quot;Courier New&amp;quot;, monospace; line-height: 18px;&quot;&gt;&lt;span style=&quot;color: #4fc1ff;&quot;&gt;SUCCESS&lt;/span&gt;&lt;/div&gt;" style="strokeWidth=2;html=1;shape=mxgraph.flowchart.terminator;whiteSpace=wrap;labelBackgroundColor=none;flipH=1;flipV=1;shadow=0;labelBorderColor=none;fillColor=#333333;" vertex="1" parent="1">
                    <mxGeometry x="-344.38" y="-492" width="110" height="50" as="geometry"/>
                </mxCell>
            </root>
        </mxGraphModel>
    </diagram>
</mxfile>